<svg xmlns="http://www.w3.org/2000/svg" width="29.917" height="30.14" viewBox="46 294 29.917 30.14"><path d="M69.478 300.122a10.14 10.14 0 0 0-.58.464l-4.917-1.17a3.684 3.684 0 0 0-.597-.09 3.69 3.69 0 0 0-2.812 1.024l-9.745 9.489a3.479 3.479 0 0 0-1.06 2.506 3.476 3.476 0 0 0 1.06 2.502l8.483 8.263a3.651 3.651 0 0 0 2.55 1.03c.895 0 1.792-.325 2.487-.971a3.638 3.638 0 0 0 .066-.064l9.745-9.489c.89-.869 1.257-2.15.96-3.345l-1.196-4.783a9.672 9.672 0 0 0 1.13-1.528c.234-.397.426-.798.57-1.2a5.43 5.43 0 0 0 .212-.761c.132-.667.106-1.277-.075-1.792a2.276 2.276 0 0 0-.555-.882c-1.213-1.18-3.571-.8-5.726.797Zm-19.35 8.998 9.74-9.489a4.715 4.715 0 0 1 3.268-1.32 4.333 4.333 0 0 1 .012 0 4.571 4.571 0 0 1 1.064.13l3.279.778 1.156.272c.045-.036.086-.066.13-.1l-2.186-3.567a3.663 3.663 0 0 0-3.078-1.718l-13.596-.104a159866.602 159866.602 0 0 1-.18-.002h-.026c-1.981 0-3.605 1.567-3.62 3.506L46 309.191c-.01.949.361 1.838 1.045 2.511a3.56 3.56 0 0 0 1.725.955 6.23 6.23 0 0 1-.01-.312 4.832 4.832 0 0 1 .053-.708 5.627 5.627 0 0 1 .002-.01 4.466 4.466 0 0 1 1.312-2.507Zm24.319-6.155a5.806 5.806 0 0 0 .229-.54c.246-.692.3-1.305.171-1.775a1.315 1.315 0 0 0-.342-.602 1.378 1.378 0 0 0-.559-.324c-.822-.258-2.049.055-3.267.804a8.495 8.495 0 0 0-.528.354l.648.156a3.556 3.556 0 0 1 2.655 2.592l.166.658c.333-.432.612-.878.827-1.323Zm-5.478 4.332c0 .497-.196.964-.558 1.32a1.96 1.96 0 0 1-1.37.551 1.96 1.96 0 0 1-1.37-.55 1.844 1.844 0 0 1-.564-1.321 1.824 1.824 0 0 1 .563-1.316 1.959 1.959 0 0 1 1.165-.542c.048-.005.096-.008.144-.01a1.964 1.964 0 0 1 .06 0c.497 0 .995.185 1.372.552a1.82 1.82 0 0 1 .558 1.316Z" fill="rgba(9, 78, 121, 1)" fill-rule="evenodd" data-name="Shape 46"/></svg>