<svg xmlns="http://www.w3.org/2000/svg" width="10.945" height="10.86" viewBox="265 6 10.945 10.86"><path d="m271.61 11.419 1.747-1.746 2.34-2.34a.777.777 0 0 0 .214-.403.78.78 0 0 0-.176-.661.791.791 0 0 0-.038-.04.777.777 0 0 0-.403-.215.78.78 0 0 0-.701.214l-4.13 4.13-4.13-4.127a.777.777 0 0 0-.403-.214.78.78 0 0 0-.661.176.791.791 0 0 0-.04.038.776.776 0 0 0-.215.403.78.78 0 0 0 .179.663.79.79 0 0 0 .036.038l4.107 4.106-4.088 4.086a.777.777 0 0 0-.214.403.78.78 0 0 0 .178.663.79.79 0 0 0 .036.038.777.777 0 0 0 .403.215.781.781 0 0 0 .664-.18.79.79 0 0 0 .038-.035l4.13-4.128 4.13 4.126a.777.777 0 0 0 .402.214.78.78 0 0 0 .663-.178.791.791 0 0 0 .039-.036.781.781 0 0 0 0-1.104l-4.107-4.106Z" fill="rgba(255, 255, 255, 1)" fill-rule="evenodd" data-name="Shape 39 copy 9"/></svg>