<svg xmlns="http://www.w3.org/2000/svg" width="30.918" height="30.918" viewBox="48 516 30.918 30.918"><path d="M48 521.521v24.292c0 .61.494 1.105 1.104 1.105h17.667v-1.105h-4.416a1.104 1.104 0 0 1-1.105-1.104v-1.75a9.883 9.883 0 0 1-1.675-.836 8.188 8.188 0 0 1-.581-.4l-1.573.892a1.104 1.104 0 0 1-1.475-.368 1.123 1.123 0 0 1-.02-.033l-2.252-3.826a1.104 1.104 0 0 1 .358-1.491 1.123 1.123 0 0 1 .049-.03l1.55-.878a8.43 8.43 0 0 1-.09-1.218c0-.4.03-.801.09-1.217l-1.55-.878a1.104 1.104 0 0 1-.432-1.478 1.124 1.124 0 0 1 .025-.043l2.251-3.826a1.1 1.1 0 0 1 .665-.506 1.1 1.1 0 0 1 .831.105l1.573.891a8.878 8.878 0 0 1 1.416-.865 10.378 10.378 0 0 1 .84-.37v-1.75a1.104 1.104 0 0 1 1.105-1.105h4.416v-2.208H48Zm14.355 3.313v2.137c0 .234-.15.443-.375.521a9.49 9.49 0 0 0-.005.002 8.263 8.263 0 0 0-2.566 1.406.565.565 0 0 1-.374.132.57.57 0 0 1-.27-.074l-1.889-1.069-2.25 3.826 1.884 1.068a.55.55 0 0 1 .282.478.544.544 0 0 1-.01.1 7.959 7.959 0 0 0-.121.937 7.014 7.014 0 0 0-.016.473 7.343 7.343 0 0 0 .088 1.125 8.78 8.78 0 0 0 .05.286.547.547 0 0 1 .001.01c.005.03.008.06.008.09a.55.55 0 0 1-.282.479l-1.885 1.067 2.251 3.826 1.889-1.07a.567.567 0 0 1 .27-.073h.01a.567.567 0 0 1 .364.132 8.268 8.268 0 0 0 2.566 1.406 9.49 9.49 0 0 0 .005.002.553.553 0 0 1 .375.52v2.138h4.416v-6.135a4.52 4.52 0 0 1-2.054.61 4.32 4.32 0 0 1-.191.004 4.46 4.46 0 0 1-4.492-4.417c0-2.435 2.015-4.416 4.492-4.416a4.427 4.427 0 0 1 1.862.416 4.889 4.889 0 0 1 .383.198v-6.135h-4.416Zm5.52-3.313v25.397h9.938c.61 0 1.105-.495 1.105-1.105v-24.292H67.876Zm8.834 19.106-3.312 5.186-3.313-5.186v-13.585a3.316 3.316 0 0 1 3.313-3.313 3.316 3.316 0 0 1 3.312 3.313v13.585Zm2.209-20.21v-3.313c0-.61-.495-1.104-1.105-1.104H61.25l-2.208 4.417h19.876Zm-23.189 0L57.938 516h-8.834c-.61 0-1.104.494-1.104 1.104v3.313h7.73Zm17.668 18.771V528.19a3.5 3.5 0 0 0-1.921.55 2.775 2.775 0 0 0-.288.218v10.808a4.573 4.573 0 0 1 2.134-.577 4.414 4.414 0 0 1 .074-.001Zm1.104-10.826v10.972a4.427 4.427 0 0 1 1.104.432V528.96a2.983 2.983 0 0 0-1.104-.597Zm-9.938 3.097a3.313 3.313 0 0 0 0 6.625 3.251 3.251 0 0 0 1.736-.502 3.432 3.432 0 0 0 .472-.358v-4.905a3.296 3.296 0 0 0-2.01-.854 3.271 3.271 0 0 0-.198-.006Zm10.918-3.905a4.553 4.553 0 0 0-2.085-.512 4.416 4.416 0 0 0-.074 0 4.572 4.572 0 0 0-2.134.578v-.578a2.208 2.208 0 1 1 4.417 0v.578a4.742 4.742 0 0 0-.124-.066Zm-17.543-7.137L60.146 516h-1.104l-2.208 4.417h1.104Zm13.607 20.41 1.852 2.778 1.851-2.778a3.551 3.551 0 0 0-1.72-.486c-.702-.024-1.413.139-1.983.486ZM53.52 517.104a1.104 1.104 0 1 1-1.104 1.104 1.104 1.104 0 0 1 1.104-1.104Zm-3.313 0a1.104 1.104 0 1 1-1.104 1.104 1.104 1.104 0 0 1 1.104-1.104Z" fill="rgba(9, 78, 121, 1)" fill-rule="evenodd" data-name="Shape 50"/></svg>