<svg xmlns="http://www.w3.org/2000/svg" width="30" height="27" viewBox="45 77 30 27"><path d="M72 77H48a3.003 3.003 0 0 0-3 3v16a3.003 3.003 0 0 0 3 3h6.78l-.6 3H51a1 1 0 0 0-1 1 1 1 0 0 0 1 1h18a1 1 0 0 0 1-1 1 1 0 0 0-1-1h-3.18l-.6-3H72a3.003 3.003 0 0 0 3-3V80a3.003 3.003 0 0 0-3-3Zm-12 7H50a1 1 0 0 0-1 1 1 1 0 0 0 1 1h10a1 1 0 1 0 0-2Zm-2.702 8H50a1 1 0 0 0 0 2h7.298a1 1 0 1 0 0-2Zm6.482 10h-7.56l.6-3h6.36l.6 3ZM50 90h4a1 1 0 1 0 0-2h-4a1 1 0 0 0-1 1 1 1 0 0 0 1 1Zm10-2h-3a1 1 0 0 0-1 1 1 1 0 0 0 1 1h3a1 1 0 1 0 0-2Z" fill="rgba(255, 255, 255, 1)" fill-rule="evenodd" data-name="Shape 1"/></svg>