<svg xmlns="http://www.w3.org/2000/svg" width="30.598" height="30.598" viewBox="1439 63 30.598 30.598"><path d="M1467.898 83.399a1.703 1.703 0 0 0-1.7 1.7v4.08a1.023 1.023 0 0 1-1.02 1.02h-21.758a1.023 1.023 0 0 1-1.02-1.02v-4.08a1.7 1.7 0 0 0-1.7-1.7 1.7 1.7 0 0 0-1.7 1.7v4.08a4.425 4.425 0 0 0 4.42 4.419h21.758a4.425 4.425 0 0 0 4.42-4.42v-4.08a1.703 1.703 0 0 0-1.7-1.7ZM1454.298 63a1.703 1.703 0 0 0-1.699 1.7v15.409l-5.372-4.475c-.69-.574-1.699-.51-2.312.126a1.726 1.726 0 0 0-.081.091c-.574.69-.51 1.7.127 2.312a1.726 1.726 0 0 0 .09.082l8.16 6.799a1.71 1.71 0 0 0 .272.158 1.615 1.615 0 0 0 .195.111 1.596 1.596 0 0 0 .619.125 1.597 1.597 0 0 0 .62-.125c.065-.032.129-.07.19-.11.095-.044.186-.097.272-.158l8.16-6.8a1.692 1.692 0 0 0 .567-.916c.11-.467.02-.975-.278-1.387a1.726 1.726 0 0 0-.07-.09 1.7 1.7 0 0 0-1.3-.613 1.707 1.707 0 0 0-1.088.395L1456 80.109v-15.41a1.703 1.703 0 0 0-1.7-1.699Z" fill="rgba(46, 49, 75, 1)" fill-rule="evenodd" data-name="Shape 51"/></svg>