<svg xmlns="http://www.w3.org/2000/svg" width="13.665" height="13.677" viewBox="1433 181 13.665 13.677"><path d="m1434.06 189.645 6.245-6.25 3.967 3.97-6.246 6.25-3.967-3.97Zm-1.055 4.696a.281.281 0 0 0 .077.25.29.29 0 0 0 .202.086.319.319 0 0 0 .051-.006l4.193-.748-3.775-3.778-.748 4.196Zm11.224-12.943a1.352 1.352 0 0 0-.71-.375 1.374 1.374 0 0 0-1.146.307 1.396 1.396 0 0 0-.077.071l-.566.566 3.966 3.97.566-.567a1.364 1.364 0 0 0 .379-.713 1.364 1.364 0 0 0-.32-1.164 1.373 1.373 0 0 0-.053-.057l-2.04-2.038Zm-3.522 1.593.62-.62 3.967 3.969-.62.62-3.967-3.969Z" fill="rgba(255, 255, 255, 1)" fill-rule="evenodd" data-name="Shape 53"/></svg>