<svg xmlns="http://www.w3.org/2000/svg" width="30.084" height="27.737" viewBox="46 219 30.084 27.737"><path d="M71.44 227.326H46v18.114a1.308 1.308 0 0 0 1.308 1.297h22.824a1.307 1.307 0 0 0 1.306-1.297v-3.254l-2.25-.135a47.425 47.425 0 0 0-.406-.025 15.04 15.04 0 0 0-1.124-.032l1.1 1.77a.958.958 0 0 1 .093.192c.032.09.047.184.047.278a.837.837 0 0 1-.047.275.824.824 0 0 1-.35.433.914.914 0 0 1-.186.088l-.68.232c-.03.01-.061.023-.094.036a19.783 19.783 0 0 1-.037.015c-.408.165-.892.329-1.41-.525l-1.25-2.054a31.218 31.218 0 0 1-.193.069 69.227 69.227 0 0 1-.206.072h-.003a2.1 2.1 0 0 1-1.542-.07 1.901 1.901 0 0 1-1.026-1.11l-.56-1.62a1.887 1.887 0 0 1-.101-.607 1.888 1.888 0 0 1 .226-.895 2.083 2.083 0 0 1 1.173-.993 63.081 63.081 0 0 1 .507-.17 119.145 119.145 0 0 1 .472-.155 8.591 8.591 0 0 0 1.533-.597.454.454 0 0 1 .017-.01 33.224 33.224 0 0 1 .009-.004 10.92 10.92 0 0 0 1.72-1.313.276.276 0 0 1 .024-.02l3.663-3.25a1.414 1.414 0 0 1-.05-.202 1.394 1.394 0 0 1-.019-.229 1.413 1.413 0 0 1 .952-1.332v-2.972Zm-25.44-.84v-3.714a1.309 1.309 0 0 1 1.308-1.3h2.955v.554c.014.927.78 1.667 1.714 1.654a1.684 1.684 0 0 0 1.665-1.654v-.553h3.387v.553c.013.927.78 1.667 1.714 1.654a1.684 1.684 0 0 0 1.665-1.654v-.553h3.389v.553c.013.927.78 1.667 1.713 1.654a1.684 1.684 0 0 0 1.665-1.654v-.553h2.956a1.308 1.308 0 0 1 1.306 1.299v3.714H46Zm19.855 10.721 1.37 3.961c.672-.03 1.346-.014 2.017.046l4.475.269a28.773 28.773 0 0 1-.39-.993c-.676-1.813-1.405-4.177-2.026-6.142a153.037 153.037 0 0 0-.455-1.42l-3.391 3.008-.03.029a15.176 15.176 0 0 1-1.57 1.242Zm6.585-5.766a.569.569 0 0 0-.537-.38.572.572 0 0 0-.186.03.585.585 0 0 0-.007.004.564.564 0 0 0-.347.716l3.547 10.264a.57.57 0 0 0 .538.382.57.57 0 0 0 .095-.008.578.578 0 0 0 .076-.018 22.958 22.958 0 0 1 .003-.001l.053-.027h.016a.563.563 0 0 0 .297-.696l-3.547-10.264a.12.12 0 0 0 0-.001Zm-7.907 10.51a55.113 55.113 0 0 0 .332-.12l.026-.009.265-.097c.507-.187.875-.322 1.222-.414l-1.28-3.701a6.243 6.243 0 0 1-.077.032c-.32.132-.684.252-1.171.41a440.908 440.908 0 0 0-.092.03c-.237.077-.51.166-.874.29-.3.101-.551.312-.7.59a1.055 1.055 0 0 0-.128.503c0 .114.018.228.055.338l.56 1.62a1.067 1.067 0 0 0 .578.621 1.249 1.249 0 0 0 .506.107c.139 0 .278-.023.41-.07a44.598 44.598 0 0 0 .368-.13Zm-6.747-.719h1.868c.389 0 .704.314.704.7v1.854a.703.703 0 0 1-.704.7h-1.868a.703.703 0 0 1-.704-.7v-1.856a.703.703 0 0 1 .704-.7v.002Zm-7.167 0h1.867a.703.703 0 0 1 .705.7v1.854a.703.703 0 0 1-.705.7h-1.867a.703.703 0 0 1-.704-.7v-1.856c0-.386.315-.7.704-.7v.002Zm7.167-5.903h1.868c.388.001.703.314.704.7v1.855a.703.703 0 0 1-.704.7h-1.868a.703.703 0 0 1-.704-.7v-1.856a.703.703 0 0 1 .704-.7Zm0-5.999h1.868a.703.703 0 0 1 .704.7v1.854a.703.703 0 0 1-.704.7h-1.868a.703.703 0 0 1-.704-.7v-1.855c0-.386.315-.699.704-.699Zm7.167 0h1.868a.703.703 0 0 1 .704.7v1.854a.704.704 0 0 1-.704.7h-1.868a.704.704 0 0 1-.704-.7v-1.855a.703.703 0 0 1 .704-.699Zm-14.334 0h1.867c.389 0 .704.313.705.7v1.854c0 .387-.316.7-.705.7h-1.867a.703.703 0 0 1-.704-.7v-1.855a.703.703 0 0 1 .704-.699Zm0 6h1.867a.703.703 0 0 1 .704.699v1.855a.703.703 0 0 1-.704.699h-1.867a.703.703 0 0 1-.704-.7v-1.855c0-.386.315-.699.704-.7ZM58.72 219a.844.844 0 0 0-.844.838v2.188c.01.463.395.83.86.821a.84.84 0 0 0 .827-.82v-2.19a.844.844 0 0 0-.843-.837Zm6.766 0a.844.844 0 0 0-.844.838v2.188a.841.841 0 0 0 .844.821.866.866 0 0 0 .017 0 .84.84 0 0 0 .827-.82v-2.19a.844.844 0 0 0-.844-.837Zm-13.532 0a.844.844 0 0 0-.843.838v2.188a.841.841 0 0 0 .844.821.866.866 0 0 0 .017 0 .84.84 0 0 0 .826-.82v-2.19a.844.844 0 0 0-.843-.837Zm23.665 19.055a.894.894 0 0 0 .419-.649 2.756 2.756 0 0 0 .045-.428 2.763 2.763 0 0 0-.173-1.04 2.771 2.771 0 0 0-.806-1.235.906.906 0 0 0-.638-.263.908.908 0 0 0-.094.005l1.247 3.61Zm-9.97 4.383 1.164 1.916a.833.833 0 0 0 .047.07c.138.181.253.142.352.102a5.478 5.478 0 0 0 .01-.004 3.536 3.536 0 0 1 .08-.032 1.45 1.45 0 0 1 .057-.02l.694-.237v-.004a.136.136 0 0 0-.01-.024l-1.31-2.109c-.368.09-.729.206-1.081.344l-.003-.002Z" fill="rgba(9, 78, 121, 1)" fill-rule="evenodd" data-name="Shape 45"/></svg>