<svg xmlns="http://www.w3.org/2000/svg" width="32.628" height="32.783" viewBox="44 539 32.628 32.783"><path d="M74.59 547.79a2.044 2.044 0 0 0-2.04 2.049v11.104a2.61 2.61 0 0 1-2.6 2.613h-6.767l.628-.632a2.043 2.043 0 0 0 .564-1.078c.11-.6-.049-1.238-.474-1.723a2.075 2.075 0 0 0-.09-.096 2.026 2.026 0 0 0-1.004-.553 2.032 2.032 0 0 0-1.76.441 2.072 2.072 0 0 0-.12.112l-4.11 4.129a2.054 2.054 0 0 0 0 2.898l4.11 4.13a2.027 2.027 0 0 0 1.005.552 2.04 2.04 0 0 0 .437.047c.523 0 1.044-.2 1.443-.6a2.043 2.043 0 0 0 .564-1.08 2.054 2.054 0 0 0-.475-1.721 2.075 2.075 0 0 0-.09-.096l-.628-.632h6.767c3.682 0 6.678-3.01 6.678-6.71V549.84c0-1.131-.913-2.049-2.039-2.049Zm-17.144-.563h-6.767a2.609 2.609 0 0 0-2.6 2.612v11.105a2.044 2.044 0 0 1-2.04 2.048A2.044 2.044 0 0 1 44 560.944v-11.105a6.702 6.702 0 0 1 6.679-6.71h6.767l-.629-.631a2.043 2.043 0 0 1-.564-1.079c-.109-.599.05-1.238.474-1.723a2.076 2.076 0 0 1 .09-.096 2.028 2.028 0 0 1 1.004-.552 2.03 2.03 0 0 1 1.764.444 2.07 2.07 0 0 1 .116.108l4.11 4.13a2.053 2.053 0 0 1 0 2.897l-4.11 4.129c-.398.4-.92.6-1.442.6a2.027 2.027 0 0 1-1.325-.492 2.074 2.074 0 0 1-.117-.108 2.043 2.043 0 0 1-.564-1.079c-.109-.599.05-1.238.474-1.723a2.076 2.076 0 0 1 .09-.096l.629-.631Z" fill="rgba(9, 78, 121, 1)" fill-rule="evenodd" data-name="Shape 49"/></svg>