<svg xmlns="http://www.w3.org/2000/svg" width="103.354" height="116.329" viewBox="47 607 25.838 29.082"><path d="M47.837 622.442c-1.616-3.981-.794-7.777 1.622-10.259a8.774 8.774 0 0 0-.01-.014c-.096-.144-.193-.28-.265-.446-.72-1.605-.06-3.461 1.475-4.296a3.517 3.517 0 0 1 .293-.142 3.493 3.493 0 0 1 .992-.263c.13-.015.259-.022.388-.022a3.45 3.45 0 0 1 3.155 2.018c.066.147.105.299.143.45a24.441 24.441 0 0 0 .012.045c2.645-.053 5.265 1.086 7.213 3.136a11.113 11.113 0 0 1 1.844 2.62 7.133 7.133 0 0 0 .035.076c.308.67 2.644 5.579 5.293 6.515a2.749 2.749 0 0 0 .474.122c.093.005 1.714.045 2.215 1.199a1.621 1.621 0 0 1 .004.009 1.496 1.496 0 0 1 .119.59c0 .99-.901 2.103-2.292 2.69l-18.17 7.669c-1.675.708-3.527.424-3.923-.702a1.777 1.777 0 0 1-.08-.322c-.15-.98.555-1.829.629-1.911 1.598-2.406-.797-7.94-1.129-8.68a7.219 7.219 0 0 0-.037-.082Zm17.948 9.857a3.32 3.32 0 0 0-.266-.944 3.23 3.23 0 0 0-.02-.043 3.361 3.361 0 0 0-.84-1.107l-5.726 2.459a3.656 3.656 0 0 0 0 .047c0 .453.084.913.283 1.352a3.444 3.444 0 0 0 3.152 2.02c.13 0 .26-.008.39-.023a3.497 3.497 0 0 0 .992-.263 3.511 3.511 0 0 0 .272-.13 3.352 3.352 0 0 0 1.763-3.368Z" fill="rgba(9, 78, 121, 1)" fill-rule="evenodd" data-name="Shape 18"/></svg>