<svg xmlns="http://www.w3.org/2000/svg" width="28.359" height="32.991" viewBox="46 147 28.359 32.991"><path d="M72.414 152.619h-3.02v14.073a2.521 2.521 0 0 1-2.509 2.526H53.474a2.521 2.521 0 0 1-2.509-2.526v-14.073h-3.02A1.951 1.951 0 0 0 46 154.578V172h28.36v-17.423c0-1.083-.871-1.96-1.946-1.96ZM46 173.96a1.951 1.951 0 0 0 1.945 1.959h8.344l-.921 3.041h-.87a.5.5 0 0 0-.292.092.527.527 0 0 0-.22.424.521.521 0 0 0 .35.49.512.512 0 0 0 .162.025h11.364a.53.53 0 0 0 .396-.21.499.499 0 0 0 .116-.305.559.559 0 0 0-.458-.512.396.396 0 0 0-.054-.004h-.87l-.922-2.99h8.344a1.951 1.951 0 0 0 1.945-1.958v-.98H46v.928Zm7.474-5.773h13.411a1.49 1.49 0 0 0 1.485-1.495v-14.33h-2.969a2.39 2.39 0 0 1-2.355-2.372V147h-9.572a1.49 1.49 0 0 0-1.485 1.495v18.145a1.512 1.512 0 0 0-.002.088 1.474 1.474 0 0 0 1.487 1.459Zm8.994-3.73a6.909 6.909 0 0 0-.087.843.559.559 0 0 1-.458.512.396.396 0 0 1-.054.003h-3.327a.519.519 0 0 1-.476-.322.518.518 0 0 1-.036-.193 6.25 6.25 0 0 0-.058-.576c-.142-.985-.517-2.213-1.069-2.981a4.335 4.335 0 0 1-.69-1.275c-.831-2.454.738-5.275 3.557-5.581 3.686-.412 5.99 3.866 3.788 6.804-.523.689-.92 1.728-1.09 2.766Zm-7.51-12.766h6.143a.558.558 0 0 1 .255.057c.16.082.257.246.257.458a.57.57 0 0 1-.056.254c-.08.163-.244.262-.456.262h-6.143a.557.557 0 0 1-.255-.057.467.467 0 0 1-.247-.344.638.638 0 0 1-.01-.115.57.57 0 0 1 .056-.253c.08-.163.244-.262.456-.262Zm0-2.217h6.143c.307 0 .512.207.512.516a.57.57 0 0 1-.056.254c-.08.163-.244.261-.456.261h-6.143c-.267 0-.457-.156-.502-.401a.638.638 0 0 1-.01-.114.569.569 0 0 1 .056-.254c.08-.163.244-.262.456-.262Zm10.443 1.856h2.662l-3.993-4.02v2.68a1.336 1.336 0 0 0 .297.85 1.331 1.331 0 0 0 1.034.49Z" fill="rgba(9, 78, 121, 1)" fill-rule="evenodd" data-name="Shape 44"/></svg>