<svg xmlns="http://www.w3.org/2000/svg" width="22.634" height="29.376" viewBox="50 763 22.634 29.376"><path d="M65.048 768.018a2.465 2.465 0 0 0 2.468 2.449h5.118v20.073a1.834 1.834 0 0 1-.486 1.237 1.84 1.84 0 0 1-1.364.6H51.85a1.915 1.915 0 0 1-.055-.002A1.848 1.848 0 0 1 50 790.54v-25.704c0-.565.236-1.058.62-1.39a1.862 1.862 0 0 1 1.23-.446h13.198v5.018Zm-9.077 9.995a1.438 1.438 0 0 0-.235-.019 1.428 1.428 0 0 0-.038 0 1.532 1.532 0 0 0-1.443 1.408 1.535 1.535 0 0 0 0 .02c.01.785.624 1.387 1.419 1.387a1.576 1.576 0 0 0 .018 0 1.42 1.42 0 0 0 .98-.393 1.397 1.397 0 0 0 .42-1.014 2.064 2.064 0 0 0-.005-.148 1.512 1.512 0 0 0-.047-.288 1.001 1.001 0 0 0-.133-.299l1.912-2.02a1.05 1.05 0 0 0 .372.16 1.187 1.187 0 0 0 .245.024 1.053 1.053 0 0 0 .002 0c.37 0 .739-.123.985-.367l1.418.98c-.033.033-.049.084-.055.144a1.445 1.445 0 0 0-.006.16c0 .424.174.795.457 1.05a1.425 1.425 0 0 0 .961.359c.395 0 .745-.148.998-.394a1.397 1.397 0 0 0 .42-1.014c0-.183-.06-.367-.123-.55l1.727-1.96a3.02 3.02 0 0 0 .072.024c.174.053.383.1.545.1.395 0 .744-.149.998-.394a1.397 1.397 0 0 0 .42-1.014 1.535 1.535 0 0 0 0-.02c-.01-.786-.623-1.388-1.418-1.388a1.39 1.39 0 0 0-1.418 1.408c0 .306.061.55.185.734l-1.666 1.897a.612.612 0 0 0-.044-.04 1.017 1.017 0 0 0-.519-.194 1.52 1.52 0 0 0-.177-.01 1.638 1.638 0 0 0-.051 0 1.25 1.25 0 0 0-.874.367l-1.418-.98a.494.494 0 0 0 .061-.252 3.845 3.845 0 0 0 0-.053 1.39 1.39 0 0 0-1.418-1.408 1.568 1.568 0 0 0-.019 0 1.39 1.39 0 0 0-1.4 1.408 1.42 1.42 0 0 0 .027.277 1.098 1.098 0 0 0 .158.396l-1.912 2.02a2.452 2.452 0 0 0-.381-.104Zm14.135 6.346H52.529v-1.224h17.577v1.224Zm0 2.754H52.529v-1.224h17.577v1.224Zm-6.168 2.693h-11.41v-1.225h11.41v1.225Zm3.578-20.564h4.44l-5.674-5.63v4.406c0 .674.555 1.224 1.234 1.224Z" fill="rgba(9, 78, 121, 1)" fill-rule="evenodd" data-name="Shape 23"/></svg>