<svg xmlns="http://www.w3.org/2000/svg" width="39.652" height="27.989" viewBox="43 441 39.652 27.989"><path d="M66.78 458.133h-.187a6.909 6.909 0 0 1-1.547.707l-2.094 8.793v.026l-.003-.012-.003.012v-.026l-2.093-8.792a6.93 6.93 0 0 1-1.554-.708h-.188c-4.361 0-7.896 3.472-7.896 7.754v2.88c0 .049.002.097.003.144a7.52 7.52 0 0 1 .003.078h23.45a11.905 11.905 0 0 1 .002-.061c.002-.054.004-.107.004-.16v-2.88c0-4.283-3.535-7.755-7.896-7.755Zm3.64-8.616a.398.398 0 0 0-.131.002 9.562 9.562 0 0 0-1.429-5.055A6.962 6.962 0 0 0 63.034 441c-4.002 0-7.256 3.84-7.256 8.562v.012a.495.495 0 0 0-.23-.062.382.382 0 0 0-.064.005c-.44.075-.665.878-.503 1.792.154.868.601 1.524 1.023 1.524a.399.399 0 0 0 .067-.005.421.421 0 0 0 .194-.09.543.543 0 0 0 .025-.022 8.524 8.524 0 0 0 2.625 3.89 6.478 6.478 0 0 0 4.119 1.517c3.029 0 5.63-2.203 6.715-5.32a.42.42 0 0 0 .085.025.398.398 0 0 0 .067.005c.42 0 .868-.656 1.023-1.524a3.453 3.453 0 0 0 .045-.368c.043-.637-.108-1.168-.385-1.356a.414.414 0 0 0-.164-.068Zm-19.117 10.756a.547.547 0 0 0 .015-.018h.015c.66-.905 1.466-1.61 2.384-2.215a4.149 4.149 0 0 0-2.044-.729 4.52 4.52 0 0 0-.377-.016h-.099a2.601 2.601 0 0 1-.61.27l-.236.075a20.368 20.368 0 0 0-.01.003l-1.147 4.63v.013-.007.007-.014l-1.072-4.627a4.509 4.509 0 0 1-.359-.127 2.555 2.555 0 0 1-.428-.223h-.1a4.302 4.302 0 0 0-3.46 1.714 3.907 3.907 0 0 0-.775 2.339v1.525a.03.03 0 0 0 .001.009c.009.026.057.01.058.086h6.828a18.157 18.157 0 0 1 .318-.832 9.27 9.27 0 0 1 .997-1.862v-.02h.101v.02Zm11.73-3.48c-3.254 0-5.902-3.244-5.902-7.232a8.73 8.73 0 0 1 .203-1.875 8.598 8.598 0 0 1 .027-.12c1.503-1.91 4.703-2.046 6.543.19a7.142 7.142 0 0 0 .541.59c1.826 1.77 3.917 1.835 4.47 1.818-.242 3.568-2.604 6.408-5.534 6.617a4.874 4.874 0 0 1-.347.013Zm19.555 6.08v-1.526a4.03 4.03 0 0 0-3.739-4.036 4.412 4.412 0 0 0-.374-.016h-.1a2.044 2.044 0 0 1-.412.197c-.152.055-.31.101-.455.147a10.72 10.72 0 0 0-.01.004l-1.168 4.629-1.05-4.628a4.181 4.181 0 0 1-.267-.093 2.677 2.677 0 0 1-.499-.256h-.1a4.41 4.41 0 0 0-1.686.319 3.787 3.787 0 0 0-.667.356 9.58 9.58 0 0 1 3.904 4.997h6.687c.002-.082-.064-.055-.064-.095Zm-36.961-8.439a.229.229 0 0 0 .108-.052.283.283 0 0 0 .008-.007 4.508 4.508 0 0 0 1.405 2.071 3.427 3.427 0 0 0 2.166.792 3.67 3.67 0 0 0 3.047-1.777 4.795 4.795 0 0 0 .507-1.04.22.22 0 0 0 .045.013.211.211 0 0 0 .035.003c.224 0 .461-.348.542-.808a1.825 1.825 0 0 0 .024-.195c.027-.397-.09-.718-.29-.753a.204.204 0 0 0-.032-.002.284.284 0 0 0-.038.003 5.063 5.063 0 0 0-.756-2.676 3.685 3.685 0 0 0-3.084-1.834 3.736 3.736 0 0 0-3.21 2.045 5.104 5.104 0 0 0-.632 2.488v.006a.26.26 0 0 0-.121-.033.204.204 0 0 0-.035.003.26.26 0 0 0-.167.117c-.102.145-.148.407-.117.704a1.853 1.853 0 0 0 .018.127 1.743 1.743 0 0 0 .101.355c.112.273.28.453.44.453a.21.21 0 0 0 .036-.003Zm27.043-1.728a.017.017 0 0 1 0-.001 5.104 5.104 0 0 1 .63-2.488 3.736 3.736 0 0 1 3.211-2.045 3.686 3.686 0 0 1 3.085 1.834 5.063 5.063 0 0 1 .756 2.676.274.274 0 0 1 .038-.003.2.2 0 0 1 .031.002.22.22 0 0 1 .087.036c.174.119.254.493.18.912-.081.46-.318.808-.541.808a.211.211 0 0 1-.035-.003.168.168 0 0 1-.008-.001.22.22 0 0 1-.038-.012 4.795 4.795 0 0 1-.507 1.04 3.671 3.671 0 0 1-3.048 1.777 3.43 3.43 0 0 1-2.18-.804 4.515 4.515 0 0 1-1.39-2.059.27.27 0 0 1-.005.005.228.228 0 0 1-.111.054.21.21 0 0 1-.036.003c-.223 0-.46-.348-.541-.808-.062-.348-.017-.665.1-.83a.261.261 0 0 1 .166-.118.205.205 0 0 1 .035-.003c.04 0 .08.012.121.033a.026.026 0 0 0 0-.002Zm1.383 2.361a2.959 2.959 0 0 0 2.458 1.467 2.58 2.58 0 0 0 .184-.007c1.551-.11 2.801-1.615 2.93-3.503a2.005 2.005 0 0 1-.032 0 3.346 3.346 0 0 1-2.335-.963 3.783 3.783 0 0 1-.286-.311 2.337 2.337 0 0 0-1.812-.874 2.09 2.09 0 0 0-1.652.773c-.078.336-.122.69-.122 1.056a4.738 4.738 0 0 0 .007.249c.041.794.282 1.523.66 2.113Zm-24.279-3.317a2.46 2.46 0 0 0-.492-.456c-.979-.684-2.298-.501-2.972.355a4.57 4.57 0 0 0-.121 1.045 4.588 4.588 0 0 0 0 .011c0 2.111 1.401 3.829 3.125 3.829.986 0 1.867-.564 2.44-1.442a4.324 4.324 0 0 0 .673-2.068 2.005 2.005 0 0 1-.031 0c-.368.007-1.63-.068-2.622-1.274Zm22.433 12.974h-5.414v-.942h5.414v.942Zm9.126-3.976h-2.93v-.493h2.93v.493Zm-8.663-8.042v.003m7.723-.03a.23.23 0 0 0-.003 0" fill="rgba(255, 255, 255, 1)" fill-rule="evenodd" data-name="Shape 54"/></svg>