<svg xmlns="http://www.w3.org/2000/svg" width="27.738" height="26.473" viewBox="48.836 840 27.738 26.473"><path d="M62.705 841.985c-4.297 0-7.78 3.408-7.78 7.611v9.266c0 .548-.455.993-1.015.993a1.02 1.02 0 0 1-.81-.396 2.645 2.645 0 0 1-1.205.08c-1.765-.287-3.06-1.781-3.06-3.532v-3.556c0-1.75 1.295-3.245 3.06-3.533a2.654 2.654 0 0 1 1.022.032c.34-4.999 4.592-8.95 9.788-8.95 5.196 0 9.448 3.951 9.788 8.95.324-.075.67-.09 1.022-.032 1.765.288 3.06 1.782 3.06 3.533v3.556c0 1.751-1.295 3.245-3.06 3.533a2.647 2.647 0 0 1-1.158-.067c-.592 2.578-2.781 4.596-5.56 4.936l-.45.054c-.292 1.154-1.358 2.01-2.627 2.01h-2.03c-1.494 0-2.706-1.185-2.706-2.647 0-1.462 1.212-2.648 2.706-2.648h2.03c1 0 1.873.53 2.341 1.32l.484-.06c2.25-.275 3.94-2.147 3.94-4.366v-8.476c0-4.203-3.483-7.61-7.78-7.61Z" fill="rgba(9, 78, 121, 1)" fill-rule="evenodd" data-name="Shape 47"/></svg>